{"title":"Get.the.Gringo.2012.BRRIP.720P.H264-ZEKTORM","uid":7424899,"size":2298738552,"categoryP":"video","categoryS":"hd___movies","magnet":"?xt=urn:btih:8e21d1ce66d2b027c173d0613d5ebddacb3cd8f9&amp;dn=Get.the.Gringo.2012.BRRIP.720P.H264-ZEKTORM&amp;tr=udp%3A%2F%2Ftracker.openbittorrent.com%3A80&amp;tr=udp%3A%2F%2Fopen.demonii.com%3A1337&amp;tr=udp%3A%2F%2Ftracker.coppersurfer.tk%3A6969&amp;tr=udp%3A%2F%2Fexodus.desync.com%3A6969","seeders":0,"leechers":1,"uploader":"blowley","files":5,"time":1341774361,"description":"Title                            : Get the Gringo\nYear                             : 2012\nGenre                            : Action | Crime | Drama\niMDB URL                         : http://www.imdb.com/title/tt1567609/\n\nComplete name                    : Get.the.Gringo.2012.BRRIP.720P.H264-ZEKTORM.mp4\nFormat                           : MPEG-4\nFormat profile                   : Base Media\nCodec ID                         : isom\nFile size                        : 2.14 GiB\nDuration                         : 1h 35mn\nOverall bit rate                 : 3192 Kbps\nSubtitles                        : English (Format: srt)\n\nVideo\nID                               : 1\nFormat                           : AVC\nFormat/Info                      : Advanced Video Codec\nFormat profile                   : &lt;a class=&quot;__cf_email__&quot; href=&quot;/cdn-cgi/l/email-protection&quot; data-cfemail=&quot;ffb7969897bfb3cbd1cf&quot;&gt;[email&amp;#160;protected]&lt;/a&gt;&lt;script cf-hash='f9e31' type=&quot;text/javascript&quot;&gt;\n/* &lt;![CDATA[ */!function(){try{var t=&quot;currentScript&quot;in document?document.currentScript:function(){for(var t=document.getElementsByTagName(&quot;script&quot;),e=t.length;e--;)if(t[e].getAttribute(&quot;cf-hash&quot;))return t[e]}();if(t&amp;&amp;t.previousSibling){var e,r,n,i,c=t.previousSibling,a=c.getAttribute(&quot;data-cfemail&quot;);if(a){for(e=&quot;&quot;,r=parseInt(a.substr(0,2),16),n=2;a.length-n;n+=2)i=parseInt(a.substr(n,2),16)^r,e+=String.fromCharCode(i);e=document.createTextNode(e),c.parentNode.replaceChild(e,c)}}}catch(u){}}();/* ]]&gt; */&lt;/script&gt;\nFormat settings, CABAC           : Yes\nFormat settings, ReFrames        : 12 frames\nCodec ID                         : avc1\nCodec ID/Info                    : Advanced Video Coding\nDuration                         : 1h 35mn\nBit rate mode                    : Variable\nBit rate                         : 2757 Kbps\nWidth                            : 1280 pixels\nHeight                           : 528 pixels\nDisplay aspect ratio             : 2.424\nFrame rate mode                  : Constant\nFrame rate                       : 23.976 fps\nResolution                       : 24 bits\nColorimetry                      : 4:2:0\nScan type                        : Progressive\nBits/(Pixel*Frame)               : 0.170\nStream size                      : 1.85 GiB (86%)\nTitle                            : Video\nWriting library                  : x264\n\nAudio\nID                               : 2\nFormat                           : AAC\nFormat/Info                      : Advanced Audio Codec\nFormat version                   : Version 4\nFormat profile                   : LC\nFormat settings, SBR             : No\nCodec ID                         : 40\nDuration                         : 1h 35mn\nBit rate mode                    : Variable\nBit rate                         : 431 Kbps\nMaximum bit rate                 : 525 Kbps\nChannel(s)                       : 6 channels\nChannel positions                : Front: L C R, Rear: L R, LFE\nSampling rate                    : 48.0 KHz\nResolution                       : 16 bits\nStream size                      : 296 MiB (13%)\nLanguage                         : English\n\n\nScreenshots:\n\n[img]http://img195.imageshack.us/img195/5148/snapgtg1.png[/img]\n\n[img]http://img832.imageshack.us/img832/5365/snapgtg2.png[/img]\n","torrent":{"xt":"urn:btih:8e21d1ce66d2b027c173d0613d5ebddacb3cd8f9","amp;dn":"Get.the.Gringo.2012.BRRIP.720P.H264-ZEKTORM","amp;tr":["udp%3A%2F%2Ftracker.openbittorrent.com%3A80","udp%3A%2F%2Fopen.demonii.com%3A1337","udp%3A%2F%2Ftracker.coppersurfer.tk%3A6969","udp%3A%2F%2Fexodus.desync.com%3A6969"],"infoHash":"8e21d1ce66d2b027c173d0613d5ebddacb3cd8f9","infoHashBuffer":{"type":"Buffer","data":[142,33,209,206,102,210,176,39,193,115,208,97,61,94,189,218,203,60,216,249]},"announce":[],"urlList":[]}}